<svg xmlns="http://www.w3.org/2000/svg" viewBox="0 0 128 128"><style>.icon{fill:#000}@media (prefers-color-scheme:dark){.icon{fill:#fff}}</style><path class="icon" d="M65.27 111.48c-.04.3-.29.52-.59.52h-1.35c-.3 0-.56-.22-.59-.52l-4.49-34.5a8.41 8.41 0 0 0-7.23-7.23l-34.5-4.49a.594.594 0 0 1-.52-.59v-1.35c0-.3.22-.56.52-.59l34.5-4.49c3.76-.5 6.73-3.46 7.23-7.23l4.49-34.5c.04-.3.29-.52.59-.52h1.35c.3 0 .56.22.59.52l4.49 34.5c.5 3.76 3.46 6.73 7.23 7.23l34.5 4.49c.3.04.52.29.52.59v1.35c0 .3-.22.56-.52.59l-34.5 4.49c-3.76.5-6.73 3.46-7.23 7.23z"/></svg>
